<svg xmlns="http://www.w3.org/2000/svg" width="31" height="31" fill="none" viewBox="0 0 31 31">
  <g clip-path="url(#a)">
    <path fill="currentColor"
      d="M10.334 3.875v5.167a1.292 1.292 0 0 1-1.292 1.291H3.875a1.292 1.292 0 0 1-1.292-1.291V3.875a1.292 1.292 0 0 1 1.292-1.292h5.167a1.292 1.292 0 0 1 1.292 1.292Zm7.75-1.292h-5.167a1.292 1.292 0 0 0-1.292 1.292v5.167a1.291 1.291 0 0 0 1.292 1.291h5.167a1.291 1.291 0 0 0 1.291-1.291V3.875a1.291 1.291 0 0 0-1.291-1.292Zm9.041 0H21.96a1.292 1.292 0 0 0-1.292 1.292v5.167a1.292 1.292 0 0 0 1.291 1.291h5.167a1.292 1.292 0 0 0 1.292-1.291V3.875a1.292 1.292 0 0 0-1.292-1.292ZM9.042 11.625H3.875a1.292 1.292 0 0 0-1.292 1.292v5.166a1.292 1.292 0 0 0 1.292 1.292h5.167a1.292 1.292 0 0 0 1.292-1.292v-5.166a1.292 1.292 0 0 0-1.292-1.292Zm9.042 0h-5.167a1.292 1.292 0 0 0-1.292 1.292v5.166a1.291 1.291 0 0 0 1.292 1.292h5.167a1.292 1.292 0 0 0 1.291-1.292v-5.166a1.292 1.292 0 0 0-1.291-1.292Zm9.041 0H21.96a1.292 1.292 0 0 0-1.292 1.292v5.166a1.292 1.292 0 0 0 1.291 1.292h5.167a1.292 1.292 0 0 0 1.292-1.292v-5.166a1.292 1.292 0 0 0-1.292-1.292ZM9.042 20.667H3.875a1.292 1.292 0 0 0-1.292 1.291v5.167a1.292 1.292 0 0 0 1.292 1.292h5.167a1.292 1.292 0 0 0 1.292-1.292v-5.167a1.292 1.292 0 0 0-1.292-1.291Zm9.042 0h-5.167a1.292 1.292 0 0 0-1.292 1.291v5.167a1.292 1.292 0 0 0 1.292 1.292h5.167a1.292 1.292 0 0 0 1.291-1.292v-5.167a1.291 1.291 0 0 0-1.291-1.291Zm9.041 0H21.96a1.292 1.292 0 0 0-1.292 1.291v5.167a1.292 1.292 0 0 0 1.291 1.292h5.167a1.292 1.292 0 0 0 1.292-1.292v-5.167a1.292 1.292 0 0 0-1.292-1.291Z" />
  </g>
  <defs>
    <clipPath id="a">
      <path fill="#fff" d="M0 0h31v31H0z" />
    </clipPath>
  </defs>
</svg>