<svg width="24" height="24" viewBox="0 0 24 24" fill="none" xmlns="http://www.w3.org/2000/svg">
  <path fill-rule="evenodd" clip-rule="evenodd"
    d="M20 15C20 15.551 19.551 16 19 16H8.554C8.011 16 7.477 16.148 7.01 16.428L4 18.234V5C4 4.449 4.449 4 5 4H19C19.551 4 20 4.449 20 5V15ZM19 2H5C3.346 2 2 3.346 2 5V20C2 20.36 2.194 20.693 2.507 20.87C2.66 20.957 2.83 21 3 21C3.178 21 3.356 20.953 3.515 20.857L8.039 18.143C8.195 18.049 8.373 18 8.554 18H19C20.654 18 22 16.654 22 15V5C22 3.346 20.654 2 19 2V2ZM11 6C11 5.448 11.448 5 12 5C12.552 5 13 5.448 13 6V11C13 11.552 12.552 12 12 12C11.448 12 11 11.552 11 11V6ZM11 14C11 13.448 11.448 13 12 13C12.552 13 13 13.448 13 14C13 14.552 12.552 15 12 15C11.448 15 11 14.552 11 14Z"
    fill="currentColor" />
</svg>