<svg xmlns="http://www.w3.org/2000/svg" width="37" height="37" fill="none" viewBox="0 0 37 37">
  <path fill="currentColor" fill-rule="evenodd"
    d="M4.625 10.792a1.542 1.542 0 1 1 3.084 0 1.542 1.542 0 0 1-3.084 0Zm0 7.708a1.542 1.542 0 1 1 3.085.001 1.542 1.542 0 0 1-3.085-.001Zm1.542 6.167a1.542 1.542 0 1 0 0 3.084 1.542 1.542 0 0 0 0-3.084Zm6.067-7.709h18.699c.794 0 1.443.65 1.443 1.443v.198c0 .794-.65 1.443-1.443 1.443h-18.7c-.793 0-1.44-.65-1.44-1.443V18.4c0-.794.647-1.443 1.44-1.443Zm18.699 7.709h-18.7c-.793 0-1.44.649-1.44 1.443v.197c0 .794.647 1.443 1.44 1.443h18.7c.794 0 1.443-.649 1.443-1.443v-.197c0-.794-.65-1.443-1.443-1.443ZM12.233 9.25h18.7c.794 0 1.443.649 1.443 1.443v.197c0 .794-.65 1.443-1.443 1.443h-18.7a1.446 1.446 0 0 1-1.44-1.443v-.197c0-.794.647-1.443 1.44-1.443Z"
    clip-rule="evenodd" />
</svg>