<svg width="36" height="36" viewBox="0 0 36 36" fill="none" xmlns="http://www.w3.org/2000/svg">
  <path
    d="M18.0019 0C27.8752 0 36 8.12482 36 18.0019C36 27.8752 27.8752 36 18.0019 36C8.12482 36 0 27.8752 0 18.0019C0 8.12482 8.12482 0 18.0019 0ZM17.9981 1.39433C8.89151 1.39433 1.39433 8.89151 1.39433 18.0019C1.39433 27.1123 8.89151 34.6057 17.9981 34.6057H18.0019C27.1089 34.6057 34.6057 27.1123 34.6057 18.0019C34.6057 8.89151 27.1089 1.39433 18.0019 1.39433H17.9981ZM18.0019 3.30328C26.0612 3.30328 32.6967 9.93883 32.6967 17.9981V18.0019C32.6967 26.0612 26.0612 32.6967 18.0019 32.6967C9.93883 32.6967 3.30328 26.0612 3.30328 18.0019V17.9981C3.30328 9.93883 9.93883 3.30328 18.0019 3.30328ZM19.0265 12.88C18.3636 12.2981 17.5599 12.3851 17.0008 12.8565L15.096 14.7557L18.8551 18.5153C18.9286 18.6031 18.9454 18.6984 18.856 18.8072L18.1367 19.5264C18.0376 19.605 17.9401 19.6088 17.8448 19.5256L14.084 15.7648L10.8118 19.0274C10.7929 21.0766 14.1949 24.9517 18.0019 24.7471C22.389 24.6849 24.816 21.3052 25.1882 19.0274L19.0265 12.88Z"
    fill="#30A995" />
</svg>