<svg xmlns="http://www.w3.org/2000/svg" width="37" height="37" fill="none" viewBox="0 0 37 37">
  <path fill="currentColor" fill-rule="evenodd"
    d="M10.792 16.957a1.542 1.542 0 1 1 3.085.001 1.542 1.542 0 0 1-3.085 0Zm7.708-1.541a1.542 1.542 0 1 0 .002 3.084 1.542 1.542 0 0 0-.002-3.084Zm6.167 0a1.542 1.542 0 1 0 .001 3.084 1.542 1.542 0 0 0 0-3.084Zm6.01 3.538c-.782 5.016-4.825 9.177-9.834 10.116a12.338 12.338 0 0 1-7.118-.75 4.958 4.958 0 0 0-1.932-.405c-.293 0-.582.028-.868.085l-4.335.866.868-4.342c.182-.902.071-1.867-.319-2.79a12.35 12.35 0 0 1-.75-7.119c.938-5.009 5.097-9.052 10.116-9.834 3.992-.621 7.898.637 10.716 3.455 2.82 2.82 4.079 6.726 3.456 10.718ZM29.402 6.056C25.88 2.535 21.008.964 16.03 1.733c-6.286.98-11.496 6.044-12.673 12.314a15.428 15.428 0 0 0 .942 8.887c.15.356.196.688.137.985L3.114 30.53a1.537 1.537 0 0 0 .422 1.392 1.535 1.535 0 0 0 1.392.422l6.603-1.32c.38-.073.746.033.992.135a15.447 15.447 0 0 0 8.887.942c6.272-1.176 11.335-6.387 12.315-12.673.774-4.975-.8-9.85-4.323-13.372Z"
    clip-rule="evenodd" />
</svg>