<svg width="30" height="30" viewBox="0 0 30 30" fill="none" xmlns="http://www.w3.org/2000/svg">
  <path fill-rule="evenodd" clip-rule="evenodd"
    d="M7.62032 19.5831L8.84957 18.3518C9.24335 17.958 9.46003 17.4351 9.46003 16.8788V12.0066C9.46003 10.5929 10.0747 9.24181 11.1476 8.30216C12.229 7.35418 13.6062 6.93748 15.0406 7.12604C17.4648 7.44793 19.293 9.63975 19.293 12.2253V16.8788C19.293 17.4351 19.5097 17.958 19.9024 18.3508L21.1327 19.5831H7.62032ZM16.4595 22.0219C16.4595 22.9584 15.5052 23.7501 14.376 23.7501C13.2468 23.7501 12.2925 22.9584 12.2925 22.0219V21.6666H16.4595V22.0219ZM23.2527 18.7581L21.3765 16.8788V12.2254C21.3765 8.59906 18.7701 5.51864 15.3136 5.06131C13.3113 4.79463 11.2904 5.40613 9.77464 6.73539C8.24953 8.0709 7.37656 9.99186 7.37656 12.0066L7.37551 16.8788L5.49934 18.7581C5.01077 19.2477 4.86597 19.9759 5.13057 20.6145C5.39621 21.2541 6.01396 21.6666 6.70568 21.6666H10.209V22.0219C10.209 24.1241 12.0779 25.8336 14.376 25.8336C16.6741 25.8336 18.543 24.1241 18.543 22.0219V21.6666H22.0463C22.738 21.6666 23.3547 21.2541 23.6193 20.6155C23.885 19.9759 23.7412 19.2467 23.2527 18.7581Z"
    fill="currentColor" />
</svg>