<svg xmlns="http://www.w3.org/2000/svg" width="37" height="37" fill="none" viewBox="0 0 37 37">
  <path fill="currentColor" fill-rule="evenodd"
    d="M6.788 17.917c1.72.59 3.09 2.03 3.664 3.856l.062.185c.657 1.937.39 4.02-.71 5.584-.201.284-.157.623.055.783l3.194 2.427a.39.39 0 0 0 .29.077.42.42 0 0 0 .28-.184l.357-.505c1.062-1.506 2.773-2.436 4.58-2.489 2.029-.041 3.85.889 4.986 2.527l.181.264a.42.42 0 0 0 .281.185c.068.014.179.01.29-.077l3.177-2.398c.222-.166.272-.522.107-.761l-.401-.578a6.118 6.118 0 0 1-.82-5.179c.564-1.905 2-3.413 3.841-4.03l.31-.104c.248-.082.383-.39.295-.674l-1.213-3.887a.489.489 0 0 0-.24-.297.363.363 0 0 0-.288-.023l-.524.174a5.77 5.77 0 0 1-5.29-.87l-.166-.124c-1.443-1.086-2.302-2.836-2.295-4.68l.003-.431a.545.545 0 0 0-.156-.392.392.392 0 0 0-.282-.125l-3.927-.004c-.24 0-.436.23-.438.513l-.001.373c-.008 1.873-.885 3.656-2.347 4.77l-.199.151a6.035 6.035 0 0 1-5.603.92.25.25 0 0 0-.205.014.367.367 0 0 0-.182.229l-1.26 4.002a.55.55 0 0 0 .34.692l.254.086Zm6.492 16c-.75 0-1.477-.244-2.09-.71L7.994 30.78c-1.527-1.156-1.864-3.38-.754-4.958.576-.817.695-1.867.356-2.863l-.085-.259c-.282-.897-.926-1.594-1.723-1.867h-.002l-.251-.088a3.614 3.614 0 0 1-2.283-4.532l1.258-4c.285-.906.9-1.636 1.732-2.057a3.326 3.326 0 0 1 2.595-.18 2.953 2.953 0 0 0 2.74-.457l.199-.151c.703-.537 1.126-1.408 1.13-2.328l.001-.372c.008-1.98 1.588-3.585 3.52-3.585h.006l3.926.004a3.46 3.46 0 0 1 2.464 1.033 3.615 3.615 0 0 1 1.053 2.582l-.003.43c-.003.873.396 1.698 1.07 2.203l.165.125c.707.532 1.63.685 2.457.407l.523-.174a3.432 3.432 0 0 1 2.67.204 3.544 3.544 0 0 1 1.777 2.124l1.214 3.887c.586 1.877-.429 3.903-2.259 4.515l-.31.104c-.888.299-1.586 1.039-1.865 1.982a3.005 3.005 0 0 0 .4 2.547l.4.578c1.1 1.591.75 3.823-.783 4.978l-3.177 2.399a3.439 3.439 0 0 1-2.638.66 3.487 3.487 0 0 1-2.327-1.476l-.181-.265c-.54-.777-1.403-1.249-2.308-1.198a2.734 2.734 0 0 0-2.202 1.183l-.356.505a3.496 3.496 0 0 1-2.864 1.496Zm5.22-17.73a2.315 2.315 0 0 0-2.313 2.313 2.315 2.315 0 0 0 2.313 2.313 2.315 2.315 0 0 0 2.313-2.313 2.315 2.315 0 0 0-2.313-2.313Zm0 7.709a5.402 5.402 0 0 1-5.396-5.396 5.402 5.402 0 0 1 5.396-5.396 5.402 5.402 0 0 1 5.396 5.396 5.402 5.402 0 0 1-5.396 5.396Z"
    clip-rule="evenodd" />
</svg>