<svg width="37" height="37" viewBox="-2 -2 37 37" fill="none" xmlns="http://www.w3.org/2000/svg">
  <g clip-path="url(#clip0_365_2583)">
    <path
      d="M17.066 14.5808H29.4904C30.0859 14.5808 30.5686 14.0982 30.5686 13.5026C30.5686 6.05725 24.5114 0 17.066 0C16.4705 0 15.9878 0.482596 15.9878 1.07819V13.5026C15.9878 14.0981 16.4705 14.5808 17.066 14.5808Z"
      fill="currentColor" stroke="currentColor" stroke-width="0.00799996" />
    <path
      d="M14.581 17.0506V5.07281C14.581 4.47722 14.0982 3.99463 13.5028 3.99463C6.05725 3.99463 0 10.0519 0 17.4973C0 24.9426 6.05725 30.9999 13.5028 30.9999C17.1092 30.9999 20.4999 29.5952 23.0505 27.0449C23.2629 26.8326 23.3761 26.5402 23.3646 26.24C23.3539 25.9663 23.2389 25.7071 23.0456 25.5155L14.581 17.0506Z"
      fill="currentColor" stroke="currentColor" stroke-width="0.00799996" />
    <path
      d="M29.9216 15.7065H17.4972C17.061 15.7065 16.668 15.9692 16.5011 16.3721C16.3341 16.7751 16.4264 17.2387 16.7348 17.5472L25.5184 26.3308C25.5285 26.3408 25.5388 26.3508 25.5492 26.3605L25.5511 26.3622C25.7579 26.5532 26.0204 26.6483 26.2825 26.6483C26.5589 26.6483 26.835 26.5426 27.045 26.3326C29.5953 23.7824 30.9998 20.3916 30.9998 16.7849C30.9998 16.1891 30.517 15.7065 29.9216 15.7065Z"
      fill="currentColor" stroke="currentColor" stroke-width="0.00799996" />
  </g>
  <defs>
    <clipPath id="clip0_365_2583">
      <rect width="37" height="37" fill="white" />
    </clipPath>
  </defs>
</svg>