<svg xmlns="http://www.w3.org/2000/svg" width="37" height="37" fill="none" viewBox="0 0 37 37">
  <path fill="currentColor" fill-rule="evenodd"
    d="M18.5 23.125a4.63 4.63 0 0 1-4.625-4.625 4.63 4.63 0 0 1 4.625-4.625 4.63 4.63 0 0 1 4.625 4.625 4.63 4.63 0 0 1-4.625 4.625Zm0-12.333c-4.25 0-7.708 3.457-7.708 7.708 0 4.25 3.458 7.708 7.708 7.708s7.71-3.458 7.71-7.708-3.459-7.708-7.709-7.708Zm0 20.041c-6.8 0-12.333-5.533-12.333-12.333S11.7 6.167 18.5 6.167 30.834 11.7 30.834 18.5 25.3 30.833 18.5 30.833Zm0-27.75C10 3.083 3.084 10 3.084 18.5S9.999 33.917 18.5 33.917C27 33.917 33.917 27 33.917 18.5S27 3.083 18.5 3.083Z"
    clip-rule="evenodd" />
</svg>